<svg version="1.1" xmlns="http://www.w3.org/2000/svg" viewBox="0 0 500 500" width="500" height="500">
<defs>
  <linearGradient id="bgGrad" x1="0%" y1="0%" x2="100%" y2="100%">
    <stop offset="0%" stop-color="#0a0f1e"/>
    <stop offset="100%" stop-color="#111827"/>
  </linearGradient>
  <linearGradient id="wolfGrad" x1="0%" y1="0%" x2="100%" y2="100%">
    <stop offset="0%" stop-color="#90cdf4"/>
    <stop offset="40%" stop-color="#63b3ed"/>
    <stop offset="100%" stop-color="#2b6cb0"/>
  </linearGradient>
  <linearGradient id="wolfDark" x1="0%" y1="0%" x2="100%" y2="100%">
    <stop offset="0%" stop-color="#1a365d"/>
    <stop offset="100%" stop-color="#0f2440"/>
  </linearGradient>
</defs>

<!-- Background -->
<rect width="500" height="500" rx="100" ry="100" fill="url(#bgGrad)"/>

<!-- Moon -->
<circle cx="353.81" cy="133" r="55.294" fill="#63b3ed" opacity="0.1"/>
<circle cx="353.81" cy="133" r="40" fill="#90cdf4" opacity="0.12"/>
<circle cx="353.81" cy="133" r="26" fill="#e2e8f0" opacity="0.15"/>

<!-- Wolf body -->
<g transform="translate(0, -15)">
  <path fill="url(#wolfGrad)" d="M367.745,164.547l-5.993,0.213c4.575-7.553,0.638-14.362,0.638-14.362s1.33-6.17-4.362-7.128
    l-4.91,4.282l-12.537,10.932c0,0-13.937,1.064-16.064,2.021c-2.128,0.958-17.447,16.49-17.447,16.49l-22.802,13.015
    c0,0,4.385,4.012,10.028,6.639l-14.911,9.886l2.97,2.88l-15.25,6.554l2.947,4.937h-13.778c0,0-25.578,2.768-30.873,3.436
    c-14.405,1.82-35.558,6.724-49.812,10.259c-12.202,3.026-22.87,10.387-30.032,20.72c-2,2.885-4.165,6.226-6.471,10.082
    c-11.83,19.784-24.682,57.236-24.895,61.279l5.745-2.553c0,0-4.043,15.745,1.277,23.405c5.319,7.66,15.958-1.277,18.937-14.256
    l0.638,4.894c0,0,6.596-17.235,7.234-31.916c0.153-3.511,0.072-7.106-0.022-10.686l0.595,0.287
    c0.859,4.625,2.713,10.731,6.732,16.285c7.802,10.78,6.951,26.654,0,38.222l-0.968,18.376l9.053,22.128h18.866
    c0,0-0.213-6.099-8.795-9.362l-5.674-20.71c0,0-0.086-3.218,2.234-9.08l0.909,0.396l2.531,12.514l10.919,23.121h17.921
    c-2.083-8.227-9.548-8.227-9.548-8.227s-8.227-18.44-8.369-22.554c-0.142-4.114,3.688-12.483,3.688-12.483
    c17.2-12.299,28.491-35.137,31.398-41.486l0.019-0.024l3.799,0.67c1.438,0.526,3.254,1.171,5.271,1.845
    c9.464,4.188,23.141,8.383,37.657,6.659c1.089,0.095,2.033,0.174,2.802,0.237c-0.962,5.976-0.376,10.691-0.376,10.691h2.979
    v20.841l2.766-2.979l1.702,35.746l2.128,15.107h21.065c-0.327-1.637-0.87-2.962-1.529-4.043h0.342h3.721h14.771
    c-0.284-7.234-9.864-10.424-9.864-10.424l-1.201-8.3c0,0,0.092-2.581,0.269-6.587l-0.159,0.523l3.179-41.14
    c0,0,1.161-13.765,6.522-17.525c3.089-2.166,5.168-5.697,6.38-8.306l1.649,1.214c5-5.889,9.778-22.889,9.778-22.889l1.889,1
    l2.029-13.581l1.515,1.331c5.39-11.064,9.362-29.93,9.362-29.93l3.262,3.121l2.695-16.454l2.27,2.837
    c2.553-7.943-0.142-19.15-0.142-19.15l4.397,2.27c0.851-6.241-4.114-23.263-4.114-23.263l2.411-1.348
    C369.944,174.05,367.745,164.547,367.745,164.547z M289.303,373.064c0,0,0.187-4.533,0.473-10.446l4.658,21.823
    c-2.208-1.304-4.28-1.377-4.28-1.377L289.303,373.064z"/>

  <!-- Dark detail accents -->
  <path fill="url(#wolfDark)" d="M327.868,166.355c0,0,1.596-3.83,7.394-4.255C335.262,162.1,334.411,166.089,327.868,166.355z"/>
  <path fill="url(#wolfDark)" d="M353.118,147.551l2.676,2.687l6.596,0.16c0,0,1.33-6.17-4.362-7.128L353.118,147.551z"/>

  <!-- Subtle structural lines -->
  <g opacity="0.5">
    <path fill="none" stroke="#1a365d" stroke-width="3" stroke-miterlimit="10" d="M202.539,299.976l4.208,5l3.229-6.49
      l2.185,3.268l3.522-3.268c0,0,25.656,18.078,53.468,13.241"/>
    <path fill="none" stroke="#1a365d" stroke-width="3" stroke-miterlimit="10" d="M220.244,301.303
      c0,0-12.044,28.801-32.15,43.179c0,0-3.83,8.369-3.688,12.483c0.142,4.114,8.369,22.554,8.369,22.554s7.465,0,9.548,8.227
      h-17.921l-10.919-23.121l-2.996-14.811"/>
    <path fill="none" stroke="#1a365d" stroke-width="3" stroke-miterlimit="10" d="M336.576,261.287l-2.235,13.547l-2.128-1.136
      c0,0,1.702,11.916-16.454,30.215c0,0-4.397,3.404-6.667,16.313s-3.546,48.796-3.546,48.796l1.201,8.3c0,0,9.58,3.19,9.864,10.424
      h-18.493"/>
    <line fill="none" stroke="#1a365d" stroke-width="3" stroke-miterlimit="10" x1="293.249" y1="383.832" x2="289.886" y2="360.396"/>
  </g>
</g>
</svg>
